HIERARCHY
ROOT Hips
{
	OFFSET 0.00000 0.00000 0.00000
	CHANNELS 6 Xposition Yposition Zposition Zrotation Yrotation Xrotation 
	JOINT LHipJoint
	{
		OFFSET 0 0 0
		CHANNELS 3 Zrotation Yrotation Xrotation
		JOINT LeftUpLeg
		{
			OFFSET 1.41496 -1.84582 0.78394
			CHANNELS 3 Zrotation Yrotation Xrotation
			JOINT LeftLeg
			{
				OFFSET 2.58040 -7.08960 0.00000
				CHANNELS 3 Zrotation Yrotation Xrotation
				JOINT LeftFoot
				{
					OFFSET 2.64719 -7.27309 0.00000
					CHANNELS 3 Zrotation Yrotation Xrotation
					JOINT LeftToeBase
					{
						OFFSET 0.20718 -0.56921 2.20259
						CHANNELS 3 Zrotation Yrotation Xrotation
						End Site
						{
							OFFSET 0.00000 -0.00000 1.14243
						}
					}
				}
			}
		}
	}
	JOINT RHipJoint
	{
		OFFSET 0 0 0
		CHANNELS 3 Zrotation Yrotation Xrotation
		JOINT RightUpLeg
		{
			OFFSET -1.40551 -1.84582 0.78394
			CHANNELS 3 Zrotation Yrotation Xrotation
			JOINT RightLeg
			{
				OFFSET -2.56572 -7.04926 0.00000
				CHANNELS 3 Zrotation Yrotation Xrotation
				JOINT RightFoot
				{
					OFFSET -2.57974 -7.08778 0.00000
					CHANNELS 3 Zrotation Yrotation Xrotation
					JOINT RightToeBase
					{
						OFFSET -0.26704 -0.73369 2.20815
						CHANNELS 3 Zrotation Yrotation Xrotation
						End Site
						{
							OFFSET -0.00000 -0.00000 1.16246
						}
					}
				}
			}
		}
	}
	JOINT LowerBack
	{
		OFFSET 0 0 0
		CHANNELS 3 Zrotation Yrotation Xrotation
		JOINT Spine
		{
			OFFSET -0.04690 2.05196 -0.07017
			CHANNELS 3 Zrotation Yrotation Xrotation
			JOINT Spine1
			{
				OFFSET 0.04085 2.05260 0.00800
				CHANNELS 3 Zrotation Yrotation Xrotation
				JOINT Neck
				{
					OFFSET 0 0 0
					CHANNELS 3 Zrotation Yrotation Xrotation
					JOINT Neck1
					{
						OFFSET -0.03582 1.80995 0.19301
						CHANNELS 3 Zrotation Yrotation Xrotation
						JOINT Head
						{
							OFFSET 0.00952 1.80195 -0.36389
							CHANNELS 3 Zrotation Yrotation Xrotation
							End Site
							{
								OFFSET 0.00392 1.85062 -0.14494
							}
						}
					}
				}
				JOINT LeftShoulder
				{
					OFFSET 0 0 0
					CHANNELS 3 Zrotation Yrotation Xrotation
					JOINT LeftArm
					{
						OFFSET 3.55224 1.39726 -0.13667
						CHANNELS 3 Zrotation Yrotation Xrotation
						JOINT LeftForeArm
						{
							OFFSET 5.14507 -0.00000 -0.00000
							CHANNELS 3 Zrotation Yrotation Xrotation
							JOINT LeftHand
							{
								OFFSET 3.50646 -0.00000 0.00000
								CHANNELS 3 Zrotation Yrotation Xrotation
								JOINT LeftFingerBase
								{
									OFFSET 0 0 0
									CHANNELS 3 Zrotation Yrotation Xrotation
									JOINT LeftHandIndex1
									{
										OFFSET 0.62997 -0.00000 0.00000
										CHANNELS 3 Zrotation Yrotation Xrotation
										End Site
										{
											OFFSET 0.50790 -0.00000 0.00000
										}
									}
								}
								JOINT LThumb
								{
									OFFSET 0 0 0
									CHANNELS 3 Zrotation Yrotation Xrotation
									End Site
									{
										OFFSET 0.51565 -0.00000 0.51565
									}
								}
							}
						}
					}
				}
				JOINT RightShoulder
				{
					OFFSET 0 0 0
					CHANNELS 3 Zrotation Yrotation Xrotation
					JOINT RightArm
					{
						OFFSET -3.06467 1.61290 -0.28813
						CHANNELS 3 Zrotation Yrotation Xrotation
						JOINT RightForeArm
						{
							OFFSET -5.23200 -0.00000 -0.00000
							CHANNELS 3 Zrotation Yrotation Xrotation
							JOINT RightHand
							{
								OFFSET -3.65641 -0.00000 0.00000
								CHANNELS 3 Zrotation Yrotation Xrotation
								JOINT RightFingerBase
								{
									OFFSET 0 0 0
									CHANNELS 3 Zrotation Yrotation Xrotation
									JOINT RightHandIndex1
									{
										OFFSET -0.65681 -0.00000 0.00000
										CHANNELS 3 Zrotation Yrotation Xrotation
										End Site
										{
											OFFSET -0.52953 -0.00000 0.00000
										}
									}
								}
								JOINT RThumb
								{
									OFFSET 0 0 0
									CHANNELS 3 Zrotation Yrotation Xrotation
									End Site
									{
										OFFSET -0.53762 -0.00000 0.53762
									}
								}
							}
						}
					}
				}
			}
		}
	}
}
MOTION
Frames: 5
Frame Time: .0083333
-8.1299 15.4883 25.0068 170.5390 0.8374 -152.6250 0.0000 0.0000 0.0000 -29.7114 -8.3854 -13.7343 5.5325 13.9595 43.0754 -0.3828 -24.0812 -14.2382 0.0171 0.8449 2.3221 0.0000 0.0000 0.0000 7.2670 4.3136 -64.5361 -20.9316 -19.9792 92.7246 -1.2052 2.3768 -20.1018 -4.3743 12.6425 -38.0446 0.5535 -1.5850 12.7734 4.0127 -1.7593 -3.3708 4.4489 -0.7714 -10.7519 0.6252 2.6292 -16.6746 -9.1957 4.5388 -0.4564 -2.5794 2.1743 2.7658 0.0000 0.0000 0.0000 -87.7668 -5.4738 50.8339 89.0801 -59.9968 -59.2033 -0.0000 0.0000 -0.6704 25.9636 -12.7354 -6.1270 -7.1250 0.0000 -0.0000 -0.9129 15.8703 0.6286 0.0000 0.0000 0.0000 74.7231 -26.4280 24.2675 -47.7943 52.0662 -24.4234 0.0000 -0.0000 -1.8679 -36.3902 -0.9968 0.7346 7.1250 -0.0000 -0.0000 -7.8223 -31.1611 -2.6680
-8.1266 15.5454 24.6192 170.0760 1.5324 -152.6770 0.0000 0.0000 0.0000 -30.4901 -7.9650 -11.7045 5.0071 13.3917 40.8532 -0.8385 -23.4036 -9.7868 0.0147 0.7818 2.1486 0.0000 0.0000 0.0000 6.9560 5.2573 -67.1319 -20.5058 -19.9939 91.4791 -1.2648 3.4709 -20.3972 -4.4542 12.7415 -38.4083 0.3170 -1.5286 12.8482 3.8112 -1.7262 -3.3383 4.3559 -0.7412 -10.7601 0.4519 2.6955 -16.5560 -9.2713 4.6640 -0.2043 -2.5646 2.2193 2.8297 -0.0000 0.0000 0.0000 -87.7795 -5.9236 51.2013 90.8206 -59.9975 -60.7106 -0.0000 0.0000 -0.3653 26.0368 -13.4462 -6.4809 -7.1250 0.0000 -0.0000 -0.9145 15.0805 0.6452 -0.0000 0.0000 0.0000 73.8997 -27.2134 25.1827 -47.7082 52.0283 -24.3555 0.0000 -0.0000 -1.3865 -36.1896 -0.6296 0.4606 7.1250 -0.0000 -0.0000 -7.6299 -30.7095 -2.6846
-8.1232 15.5836 24.2347 169.5850 2.3675 -152.8060 0.0000 0.0000 0.0000 -31.3025 -7.4845 -9.8597 4.5366 12.8421 38.7803 -1.2044 -22.3166 -4.3149 0.0201 0.9150 2.5149 0.0000 0.0000 0.0000 6.7364 6.2385 -69.5591 -19.9939 -20.0000 89.9822 -1.3104 4.6023 -20.6142 -4.5497 12.8581 -38.8395 0.0182 -1.4344 13.0137 3.5650 -1.6549 -3.2644 4.2432 -0.6895 -10.7777 0.2624 2.7549 -16.4669 -9.3352 4.7858 0.0403 -2.5437 2.2634 2.8948 0.0000 -0.0000 0.0000 -87.8124 -6.2304 51.4494 92.2186 -59.9814 -61.9212 -0.0000 -0.0000 0.1461 26.0872 -13.9773 -6.7445 -7.1250 0.0000 -0.0000 -0.9209 14.4909 0.6612 0.0000 -0.0000 0.0000 73.1897 -27.7379 26.0645 -47.4791 51.9268 -24.1750 0.0000 -0.0000 -0.9159 -35.9025 -0.2428 0.1757 7.1250 -0.0000 -0.0000 -7.3685 -30.2361 -2.6753
-8.1173 15.6496 23.8341 169.0520 3.3052 -153.0250 0.0000 0.0000 0.0000 -32.1264 -6.8987 -8.1423 4.0957 12.2866 36.7536 -1.3333 -20.6597 1.9061 0.0262 1.0456 2.8744 0.0000 0.0000 0.0000 6.7401 7.1150 -71.4523 -19.3228 -19.9890 88.0196 -1.3472 5.7509 -20.8053 -4.6433 12.9704 -39.2578 -0.3771 -1.4136 13.2831 3.2826 -1.5420 -3.1421 4.1268 -0.5486 -10.8034 0.0598 2.8042 -16.3926 -9.3907 4.8981 0.2567 -2.5188 2.3048 2.9523 0.0000 -0.0000 0.0000 -87.8598 -6.3877 51.5744 93.2582 -59.9598 -62.8213 -0.0000 -0.0000 0.8252 26.1498 -14.3168 -6.9224 -7.1250 0.0000 -0.0000 -0.9053 14.1101 0.6574 0.0000 -0.0000 0.0000 72.6111 -27.9915 26.8691 -47.1181 51.7649 -23.8911 0.0000 -0.0000 -0.4604 -35.5390 0.1132 -0.0808 7.1250 -0.0000 -0.0000 -7.0518 -29.8039 -2.6320
-8.1096 15.7152 23.4303 168.4790 4.3219 -153.3060 0.0000 0.0000 0.0000 -32.9483 -6.2542 -6.6665 3.7126 11.7679 34.9156 -1.1242 -18.4188 8.3675 0.0292 1.1025 3.0308 0.0000 0.0000 0.0000 6.9543 7.8998 -73.0290 -18.5772 -19.9514 85.8368 -1.3730 6.7714 -20.9603 -4.7628 13.1116 -39.7878 -0.8058 -1.2505 13.6133 2.9563 -1.4519 -2.9815 4.0022 -0.4995 -10.8215 -0.1599 2.8487 -16.3741 -9.4203 5.0098 0.4706 -2.4827 2.3463 3.0162 -0.0000 0.0000 0.0000 -87.8993 -6.4282 51.5769 93.9387 -59.9413 -63.4104 -0.0000 -0.0000 1.5775 26.2179 -14.4727 -7.0162 -7.1250 0.0000 -0.0000 -0.8719 13.9301 0.6364 -0.0000 0.0000 0.0000 72.1821 -27.9524 27.5636 -46.6379 51.5461 -23.5145 0.0000 -0.0000 -0.0386 -35.1265 0.4156 -0.2924 7.1250 -0.0000 -0.0000 -6.7036 -29.4408 -2.5587
